<mxfile host="app.diagrams.net" agent="Mozilla/5.0 (Windows NT 10.0; Win64; x64) AppleWebKit/537.36 (KHTML, like Gecko) Chrome/138.0.0.0 Safari/537.36" version="27.2.0">
  <diagram name="Page-1" id="5f0bae14-7c28-e335-631c-24af17079c00">
    <mxGraphModel dx="1783" dy="981" grid="0" gridSize="10" guides="1" tooltips="1" connect="1" arrows="1" fold="1" page="1" pageScale="1" pageWidth="1100" pageHeight="850" background="none" math="0" shadow="0">
      <root>
        <mxCell id="0" />
        <mxCell id="1" parent="0" />
        <mxCell id="44CX9cabOPhe4WQY_Tfx-64" value="" style="whiteSpace=wrap;html=1;" vertex="1" parent="1">
          <mxGeometry x="103" y="32" width="782" height="798" as="geometry" />
        </mxCell>
        <mxCell id="VlFVYFAtgefIfArWSq8J-5" value="&lt;div&gt;Gestión Personas&lt;/div&gt;" style="ellipse;whiteSpace=wrap;html=1;" parent="1" vertex="1">
          <mxGeometry x="120" y="480" width="120" height="80" as="geometry" />
        </mxCell>
        <mxCell id="VlFVYFAtgefIfArWSq8J-6" value="Gestión Materias" style="ellipse;whiteSpace=wrap;html=1;" parent="1" vertex="1">
          <mxGeometry x="160" y="320" width="120" height="80" as="geometry" />
        </mxCell>
        <mxCell id="VlFVYFAtgefIfArWSq8J-14" value="" style="endArrow=none;html=1;rounded=0;entryX=0;entryY=0.5;entryDx=0;entryDy=0;" parent="1" target="VlFVYFAtgefIfArWSq8J-6" edge="1" source="44CX9cabOPhe4WQY_Tfx-2">
          <mxGeometry width="50" height="50" relative="1" as="geometry">
            <mxPoint x="220" y="140" as="sourcePoint" />
            <mxPoint x="595" y="410" as="targetPoint" />
            <Array as="points" />
          </mxGeometry>
        </mxCell>
        <mxCell id="44CX9cabOPhe4WQY_Tfx-2" value="&lt;div&gt;SuperAdmin&lt;/div&gt;" style="shape=umlActor;verticalLabelPosition=bottom;verticalAlign=top;html=1;outlineConnect=0;" vertex="1" parent="1">
          <mxGeometry x="21" y="323" width="30" height="60" as="geometry" />
        </mxCell>
        <mxCell id="44CX9cabOPhe4WQY_Tfx-4" value="" style="endArrow=none;html=1;rounded=0;entryX=0;entryY=0;entryDx=0;entryDy=0;" edge="1" parent="1" target="VlFVYFAtgefIfArWSq8J-5">
          <mxGeometry width="50" height="50" relative="1" as="geometry">
            <mxPoint x="62" y="373" as="sourcePoint" />
            <mxPoint x="217.57359312880726" y="661.7157287525376" as="targetPoint" />
          </mxGeometry>
        </mxCell>
        <mxCell id="44CX9cabOPhe4WQY_Tfx-5" value="&lt;div&gt;Gestión Carreras&lt;/div&gt;" style="ellipse;whiteSpace=wrap;html=1;" vertex="1" parent="1">
          <mxGeometry x="120" y="160" width="120" height="80" as="geometry" />
        </mxCell>
        <mxCell id="44CX9cabOPhe4WQY_Tfx-6" value="" style="endArrow=none;html=1;rounded=0;entryX=0;entryY=0.5;entryDx=0;entryDy=0;" edge="1" parent="1" target="44CX9cabOPhe4WQY_Tfx-5">
          <mxGeometry width="50" height="50" relative="1" as="geometry">
            <mxPoint x="60" y="328" as="sourcePoint" />
            <mxPoint x="543" y="162" as="targetPoint" />
          </mxGeometry>
        </mxCell>
        <mxCell id="44CX9cabOPhe4WQY_Tfx-8" value="&lt;div&gt;Acceder a la lista de carreras&lt;/div&gt;" style="ellipse;whiteSpace=wrap;html=1;" vertex="1" parent="1">
          <mxGeometry x="310" y="100" width="120" height="80" as="geometry" />
        </mxCell>
        <mxCell id="44CX9cabOPhe4WQY_Tfx-9" value="&amp;lt;&amp;lt;include&amp;gt;&amp;gt;" style="endArrow=open;endSize=12;dashed=1;html=1;rounded=0;exitX=0.642;exitY=0.034;exitDx=0;exitDy=0;entryX=0;entryY=0.5;entryDx=0;entryDy=0;exitPerimeter=0;" edge="1" parent="1" source="44CX9cabOPhe4WQY_Tfx-5" target="44CX9cabOPhe4WQY_Tfx-8">
          <mxGeometry x="-0.005" width="160" relative="1" as="geometry">
            <mxPoint x="330" y="260" as="sourcePoint" />
            <mxPoint x="440" y="260" as="targetPoint" />
            <mxPoint as="offset" />
          </mxGeometry>
        </mxCell>
        <mxCell id="44CX9cabOPhe4WQY_Tfx-10" value="Ver detalles de carrera" style="ellipse;whiteSpace=wrap;html=1;" vertex="1" parent="1">
          <mxGeometry x="520" y="40" width="120" height="80" as="geometry" />
        </mxCell>
        <mxCell id="44CX9cabOPhe4WQY_Tfx-11" value="Agregar carrera" style="ellipse;whiteSpace=wrap;html=1;" vertex="1" parent="1">
          <mxGeometry x="520" y="130" width="120" height="80" as="geometry" />
        </mxCell>
        <mxCell id="44CX9cabOPhe4WQY_Tfx-12" value="&lt;div&gt;Modificar detalles&lt;/div&gt;" style="ellipse;whiteSpace=wrap;html=1;" vertex="1" parent="1">
          <mxGeometry x="740" y="40" width="120" height="80" as="geometry" />
        </mxCell>
        <mxCell id="44CX9cabOPhe4WQY_Tfx-13" value="&amp;lt;&amp;lt;extends&amp;gt;&amp;gt;" style="html=1;verticalAlign=bottom;endArrow=open;dashed=1;endSize=8;curved=0;rounded=0;exitX=0;exitY=0.5;exitDx=0;exitDy=0;entryX=1;entryY=0.5;entryDx=0;entryDy=0;" edge="1" parent="1" source="44CX9cabOPhe4WQY_Tfx-11" target="44CX9cabOPhe4WQY_Tfx-8">
          <mxGeometry relative="1" as="geometry">
            <mxPoint x="550" y="289.9999999999998" as="sourcePoint" />
            <mxPoint x="440" y="170" as="targetPoint" />
          </mxGeometry>
        </mxCell>
        <mxCell id="44CX9cabOPhe4WQY_Tfx-14" value="&amp;lt;&amp;lt;extends&amp;gt;&amp;gt;" style="html=1;verticalAlign=bottom;endArrow=open;dashed=1;endSize=8;curved=0;rounded=0;exitX=0;exitY=0.5;exitDx=0;exitDy=0;entryX=1;entryY=0;entryDx=0;entryDy=0;" edge="1" parent="1" source="44CX9cabOPhe4WQY_Tfx-10" target="44CX9cabOPhe4WQY_Tfx-8">
          <mxGeometry relative="1" as="geometry">
            <mxPoint x="530" y="149.99999999999977" as="sourcePoint" />
            <mxPoint x="420" y="30" as="targetPoint" />
          </mxGeometry>
        </mxCell>
        <mxCell id="44CX9cabOPhe4WQY_Tfx-15" value="&amp;lt;&amp;lt;extends&amp;gt;&amp;gt;" style="html=1;verticalAlign=bottom;endArrow=open;dashed=1;endSize=8;curved=0;rounded=0;exitX=0;exitY=0.5;exitDx=0;exitDy=0;entryX=1;entryY=0.5;entryDx=0;entryDy=0;" edge="1" parent="1" source="44CX9cabOPhe4WQY_Tfx-12" target="44CX9cabOPhe4WQY_Tfx-10">
          <mxGeometry relative="1" as="geometry">
            <mxPoint x="750" y="184.99999999999977" as="sourcePoint" />
            <mxPoint x="640" y="65" as="targetPoint" />
          </mxGeometry>
        </mxCell>
        <mxCell id="44CX9cabOPhe4WQY_Tfx-36" value="&lt;div&gt;Acceder a la lista de materias&lt;/div&gt;" style="ellipse;whiteSpace=wrap;html=1;" vertex="1" parent="1">
          <mxGeometry x="370" y="320" width="120" height="80" as="geometry" />
        </mxCell>
        <mxCell id="44CX9cabOPhe4WQY_Tfx-37" value="Ver detalles de materia" style="ellipse;whiteSpace=wrap;html=1;" vertex="1" parent="1">
          <mxGeometry x="500" y="240" width="120" height="80" as="geometry" />
        </mxCell>
        <mxCell id="44CX9cabOPhe4WQY_Tfx-38" value="Agregar materia" style="ellipse;whiteSpace=wrap;html=1;" vertex="1" parent="1">
          <mxGeometry x="610" y="320" width="120" height="80" as="geometry" />
        </mxCell>
        <mxCell id="44CX9cabOPhe4WQY_Tfx-39" value="&lt;div&gt;Modificar detalles&lt;/div&gt;" style="ellipse;whiteSpace=wrap;html=1;" vertex="1" parent="1">
          <mxGeometry x="750" y="240" width="120" height="80" as="geometry" />
        </mxCell>
        <mxCell id="44CX9cabOPhe4WQY_Tfx-40" value="&amp;lt;&amp;lt;extends&amp;gt;&amp;gt;" style="html=1;verticalAlign=bottom;endArrow=open;dashed=1;endSize=8;curved=0;rounded=0;exitX=0;exitY=0.5;exitDx=0;exitDy=0;entryX=1;entryY=0.5;entryDx=0;entryDy=0;" edge="1" parent="1" source="44CX9cabOPhe4WQY_Tfx-38" target="44CX9cabOPhe4WQY_Tfx-36">
          <mxGeometry relative="1" as="geometry">
            <mxPoint x="585" y="557.4999999999998" as="sourcePoint" />
            <mxPoint x="510" y="372.5000000000002" as="targetPoint" />
          </mxGeometry>
        </mxCell>
        <mxCell id="44CX9cabOPhe4WQY_Tfx-41" value="&amp;lt;&amp;lt;extends&amp;gt;&amp;gt;" style="html=1;verticalAlign=bottom;endArrow=open;dashed=1;endSize=8;curved=0;rounded=0;exitX=0;exitY=0.5;exitDx=0;exitDy=0;entryX=0.5;entryY=0;entryDx=0;entryDy=0;" edge="1" parent="1" source="44CX9cabOPhe4WQY_Tfx-37" target="44CX9cabOPhe4WQY_Tfx-36">
          <mxGeometry relative="1" as="geometry">
            <mxPoint x="515" y="404.9999999999998" as="sourcePoint" />
            <mxPoint x="405" y="285" as="targetPoint" />
          </mxGeometry>
        </mxCell>
        <mxCell id="44CX9cabOPhe4WQY_Tfx-42" value="&amp;lt;&amp;lt;extends&amp;gt;&amp;gt;" style="html=1;verticalAlign=bottom;endArrow=open;dashed=1;endSize=8;curved=0;rounded=0;exitX=0;exitY=0.5;exitDx=0;exitDy=0;entryX=1;entryY=0.5;entryDx=0;entryDy=0;" edge="1" parent="1" source="44CX9cabOPhe4WQY_Tfx-39" target="44CX9cabOPhe4WQY_Tfx-37">
          <mxGeometry relative="1" as="geometry">
            <mxPoint x="785" y="452.4999999999998" as="sourcePoint" />
            <mxPoint x="675" y="332.5" as="targetPoint" />
          </mxGeometry>
        </mxCell>
        <mxCell id="44CX9cabOPhe4WQY_Tfx-43" value="&amp;lt;&amp;lt;include&amp;gt;&amp;gt;" style="endArrow=open;endSize=12;dashed=1;html=1;rounded=0;exitX=1;exitY=0.5;exitDx=0;exitDy=0;entryX=0;entryY=0.5;entryDx=0;entryDy=0;" edge="1" parent="1" source="VlFVYFAtgefIfArWSq8J-6" target="44CX9cabOPhe4WQY_Tfx-36">
          <mxGeometry width="160" relative="1" as="geometry">
            <mxPoint x="390" y="390" as="sourcePoint" />
            <mxPoint x="500" y="390" as="targetPoint" />
            <mxPoint as="offset" />
          </mxGeometry>
        </mxCell>
        <mxCell id="44CX9cabOPhe4WQY_Tfx-44" value="Filtrar materias por carrera" style="ellipse;whiteSpace=wrap;html=1;" vertex="1" parent="1">
          <mxGeometry x="540" y="400" width="120" height="80" as="geometry" />
        </mxCell>
        <mxCell id="44CX9cabOPhe4WQY_Tfx-45" value="&amp;lt;&amp;lt;extends&amp;gt;&amp;gt;" style="html=1;verticalAlign=bottom;endArrow=open;dashed=1;endSize=8;curved=0;rounded=0;exitX=0;exitY=0;exitDx=0;exitDy=0;entryX=1;entryY=1;entryDx=0;entryDy=0;" edge="1" parent="1" source="44CX9cabOPhe4WQY_Tfx-44" target="44CX9cabOPhe4WQY_Tfx-36">
          <mxGeometry x="-0.1796" y="10" relative="1" as="geometry">
            <mxPoint x="520" y="569.9999999999998" as="sourcePoint" />
            <mxPoint x="410" y="450" as="targetPoint" />
            <mxPoint as="offset" />
          </mxGeometry>
        </mxCell>
        <mxCell id="44CX9cabOPhe4WQY_Tfx-46" value="&lt;div&gt;Acceder a la lista de personas&lt;/div&gt;" style="ellipse;whiteSpace=wrap;html=1;" vertex="1" parent="1">
          <mxGeometry x="240" y="590" width="120" height="80" as="geometry" />
        </mxCell>
        <mxCell id="44CX9cabOPhe4WQY_Tfx-47" value="Ver detalles de persona" style="ellipse;whiteSpace=wrap;html=1;" vertex="1" parent="1">
          <mxGeometry x="430" y="550" width="120" height="80" as="geometry" />
        </mxCell>
        <mxCell id="44CX9cabOPhe4WQY_Tfx-48" value="Agregar persona" style="ellipse;whiteSpace=wrap;html=1;" vertex="1" parent="1">
          <mxGeometry x="410" y="670" width="120" height="80" as="geometry" />
        </mxCell>
        <mxCell id="44CX9cabOPhe4WQY_Tfx-49" value="&lt;div&gt;Modificar detalles&lt;/div&gt;" style="ellipse;whiteSpace=wrap;html=1;" vertex="1" parent="1">
          <mxGeometry x="620" y="490" width="120" height="80" as="geometry" />
        </mxCell>
        <mxCell id="44CX9cabOPhe4WQY_Tfx-50" value="&amp;lt;&amp;lt;extends&amp;gt;&amp;gt;" style="html=1;verticalAlign=bottom;endArrow=open;dashed=1;endSize=8;curved=0;rounded=0;exitX=0;exitY=0.5;exitDx=0;exitDy=0;entryX=1;entryY=1;entryDx=0;entryDy=0;" edge="1" parent="1" source="44CX9cabOPhe4WQY_Tfx-48" target="44CX9cabOPhe4WQY_Tfx-46">
          <mxGeometry relative="1" as="geometry">
            <mxPoint x="455" y="827.4999999999998" as="sourcePoint" />
            <mxPoint x="380" y="642.5000000000002" as="targetPoint" />
          </mxGeometry>
        </mxCell>
        <mxCell id="44CX9cabOPhe4WQY_Tfx-51" value="&amp;lt;&amp;lt;extends&amp;gt;&amp;gt;" style="html=1;verticalAlign=bottom;endArrow=open;dashed=1;endSize=8;curved=0;rounded=0;exitX=0;exitY=0.5;exitDx=0;exitDy=0;entryX=1;entryY=0;entryDx=0;entryDy=0;" edge="1" parent="1" source="44CX9cabOPhe4WQY_Tfx-47" target="44CX9cabOPhe4WQY_Tfx-46">
          <mxGeometry relative="1" as="geometry">
            <mxPoint x="385" y="674.9999999999998" as="sourcePoint" />
            <mxPoint x="275" y="555" as="targetPoint" />
          </mxGeometry>
        </mxCell>
        <mxCell id="44CX9cabOPhe4WQY_Tfx-52" value="&amp;lt;&amp;lt;extends&amp;gt;&amp;gt;" style="html=1;verticalAlign=bottom;endArrow=open;dashed=1;endSize=8;curved=0;rounded=0;exitX=0;exitY=0.5;exitDx=0;exitDy=0;entryX=1;entryY=0.5;entryDx=0;entryDy=0;" edge="1" parent="1" source="44CX9cabOPhe4WQY_Tfx-49" target="44CX9cabOPhe4WQY_Tfx-47">
          <mxGeometry relative="1" as="geometry">
            <mxPoint x="655" y="722.4999999999998" as="sourcePoint" />
            <mxPoint x="545" y="602.5" as="targetPoint" />
          </mxGeometry>
        </mxCell>
        <mxCell id="44CX9cabOPhe4WQY_Tfx-55" value="&amp;lt;&amp;lt;include&amp;gt;&amp;gt;" style="endArrow=open;endSize=12;dashed=1;html=1;rounded=0;exitX=1;exitY=1;exitDx=0;exitDy=0;entryX=0;entryY=0;entryDx=0;entryDy=0;" edge="1" parent="1" source="VlFVYFAtgefIfArWSq8J-5" target="44CX9cabOPhe4WQY_Tfx-46">
          <mxGeometry width="160" relative="1" as="geometry">
            <mxPoint x="150" y="630" as="sourcePoint" />
            <mxPoint x="260" y="630" as="targetPoint" />
            <mxPoint as="offset" />
          </mxGeometry>
        </mxCell>
        <mxCell id="44CX9cabOPhe4WQY_Tfx-57" value="&lt;div&gt;&lt;br&gt;&lt;/div&gt;Asignar o desasignar carrera (si el rol es jefe de área)" style="ellipse;whiteSpace=wrap;html=1;" vertex="1" parent="1">
          <mxGeometry x="650" y="580" width="120" height="80" as="geometry" />
        </mxCell>
        <mxCell id="44CX9cabOPhe4WQY_Tfx-58" value="&lt;div&gt;Eliminar persona&lt;/div&gt;" style="ellipse;whiteSpace=wrap;html=1;" vertex="1" parent="1">
          <mxGeometry x="560" y="740" width="120" height="80" as="geometry" />
        </mxCell>
        <mxCell id="44CX9cabOPhe4WQY_Tfx-59" value="&amp;lt;&amp;lt;extends&amp;gt;&amp;gt;" style="html=1;verticalAlign=bottom;endArrow=open;dashed=1;endSize=8;curved=0;rounded=0;exitX=0;exitY=0.5;exitDx=0;exitDy=0;entryX=0.996;entryY=0.644;entryDx=0;entryDy=0;entryPerimeter=0;" edge="1" parent="1" source="44CX9cabOPhe4WQY_Tfx-57" target="44CX9cabOPhe4WQY_Tfx-47">
          <mxGeometry x="-0.0018" relative="1" as="geometry">
            <mxPoint x="670" y="919.9999999999998" as="sourcePoint" />
            <mxPoint x="560" y="800" as="targetPoint" />
            <mxPoint as="offset" />
          </mxGeometry>
        </mxCell>
        <mxCell id="44CX9cabOPhe4WQY_Tfx-60" value="&amp;lt;&amp;lt;extends&amp;gt;&amp;gt;" style="html=1;verticalAlign=bottom;endArrow=open;dashed=1;endSize=8;curved=0;rounded=0;exitX=0;exitY=0;exitDx=0;exitDy=0;entryX=1;entryY=1;entryDx=0;entryDy=0;" edge="1" parent="1" source="44CX9cabOPhe4WQY_Tfx-58" target="44CX9cabOPhe4WQY_Tfx-47">
          <mxGeometry x="-0.0018" relative="1" as="geometry">
            <mxPoint x="670" y="809.9999999999998" as="sourcePoint" />
            <mxPoint x="560" y="690" as="targetPoint" />
            <mxPoint as="offset" />
          </mxGeometry>
        </mxCell>
        <mxCell id="44CX9cabOPhe4WQY_Tfx-62" value="&lt;div&gt;&lt;br&gt;&lt;/div&gt;Asignar o desasignar&amp;nbsp; materia (si el rol es profesor)" style="ellipse;whiteSpace=wrap;html=1;" vertex="1" parent="1">
          <mxGeometry x="640" y="670" width="120" height="80" as="geometry" />
        </mxCell>
        <mxCell id="44CX9cabOPhe4WQY_Tfx-63" value="&amp;lt;&amp;lt;extends&amp;gt;&amp;gt;" style="html=1;verticalAlign=bottom;endArrow=open;dashed=1;endSize=8;curved=0;rounded=0;exitX=0;exitY=0;exitDx=0;exitDy=0;entryX=0.975;entryY=0.753;entryDx=0;entryDy=0;entryPerimeter=0;" edge="1" parent="1" source="44CX9cabOPhe4WQY_Tfx-62" target="44CX9cabOPhe4WQY_Tfx-47">
          <mxGeometry x="-0.0018" relative="1" as="geometry">
            <mxPoint x="700" y="789.9999999999998" as="sourcePoint" />
            <mxPoint x="590" y="670" as="targetPoint" />
            <mxPoint as="offset" />
          </mxGeometry>
        </mxCell>
      </root>
    </mxGraphModel>
  </diagram>
</mxfile>
